<svg width="34" height="35" viewBox="0 0 34 35" fill="none" xmlns="http://www.w3.org/2000/svg">
<path d="M11.3332 31.6667C12.1156 31.6667 12.7498 31.0324 12.7498 30.25C12.7498 29.4676 12.1156 28.8333 11.3332 28.8333C10.5508 28.8333 9.9165 29.4676 9.9165 30.25C9.9165 31.0324 10.5508 31.6667 11.3332 31.6667Z" stroke="#32253F" stroke-width="2.83333" stroke-linecap="round" stroke-linejoin="round"/>
<path d="M26.9167 31.6667C27.6991 31.6667 28.3333 31.0324 28.3333 30.25C28.3333 29.4676 27.6991 28.8333 26.9167 28.8333C26.1343 28.8333 25.5 29.4676 25.5 30.25C25.5 31.0324 26.1343 31.6667 26.9167 31.6667Z" stroke="#32253F" stroke-width="2.83333" stroke-linecap="round" stroke-linejoin="round"/>
<path d="M2.9043 3.40417H5.73763L9.50596 20.9992C9.6442 21.6436 10.0027 22.2196 10.5199 22.6281C11.037 23.0367 11.6804 23.2522 12.3393 23.2375H26.1943C26.8391 23.2365 27.4643 23.0155 27.9666 22.6111C28.4689 22.2067 28.8182 21.6431 28.9568 21.0133L31.2943 10.4875H7.25346" stroke="#32253F" stroke-width="2.83333" stroke-linecap="round" stroke-linejoin="round"/>
</svg>
