<svg width="34" height="35" viewBox="0 0 34 35" fill="none" xmlns="http://www.w3.org/2000/svg">
<path d="M25.5 28.8333C25.5 26.579 24.6045 24.417 23.0104 22.8229C21.4163 21.2289 19.2543 20.3333 17 20.3333C14.7457 20.3333 12.5837 21.2289 10.9896 22.8229C9.39553 24.417 8.5 26.579 8.5 28.8333" stroke="#32253F" stroke-width="2.83333" stroke-linecap="round" stroke-linejoin="round"/>
<path d="M17.0002 20.3333C20.1298 20.3333 22.6668 17.7963 22.6668 14.6667C22.6668 11.5371 20.1298 9 17.0002 9C13.8705 9 11.3335 11.5371 11.3335 14.6667C11.3335 17.7963 13.8705 20.3333 17.0002 20.3333Z" stroke="#32253F" stroke-width="2.83333" stroke-linecap="round" stroke-linejoin="round"/>
<path d="M17.0002 31.6667C24.8242 31.6667 31.1668 25.324 31.1668 17.5C31.1668 9.67596 24.8242 3.33333 17.0002 3.33333C9.17613 3.33333 2.8335 9.67596 2.8335 17.5C2.8335 25.324 9.17613 31.6667 17.0002 31.6667Z" stroke="#32253F" stroke-width="2.83333" stroke-linecap="round" stroke-linejoin="round"/>
</svg>
