<svg width="230" height="61" viewBox="0 0 230 61" fill="none" xmlns="http://www.w3.org/2000/svg">
<path d="M0.864 47V46.568H2.112C4.416 46.568 4.704 46.328 4.704 44.024V15.464C4.704 13.16 4.416 12.92 2.112 12.92H0.864V12.488H8.208L21.36 36.68C21.888 37.592 22.224 38.264 22.224 38.456H22.512C22.464 37.928 22.464 37.256 22.464 36.44V15.944C22.464 13.64 21.696 12.92 19.392 12.92H17.232V12.488H27.12V12.92H26.352C24.048 12.92 23.28 13.64 23.28 15.944V47.912H22.896C22.896 47.432 22.176 46.088 21.552 44.936L6.672 17.912C6.144 17.048 5.712 16.088 5.712 16.04H5.472C5.52 16.568 5.52 17.288 5.52 18.104V44.024C5.52 46.328 5.808 46.568 8.112 46.568H9.36V47H0.864ZM45.2299 29.528V19.256C45.2299 15.176 43.2139 12.968 39.5659 12.968C34.8139 12.968 32.2699 15.8 32.0779 19.496L31.9819 22.472H31.1179L31.6459 11.144H32.1259L31.9819 13.688C31.9339 14.36 31.8859 14.888 31.7899 15.224L32.1259 15.32C32.1739 15.176 32.5579 14.456 32.8939 14.216C34.3819 13.112 36.6379 12.104 39.5179 12.104C45.7099 12.104 48.9739 14.84 48.9739 19.88V43.592C48.9739 45.512 49.1179 46.04 50.5579 46.04C50.8459 46.04 51.5179 45.992 51.5179 45.992L52.3339 45.944V46.376C50.0299 46.616 48.4939 47 47.1499 47.432V47.048C47.1499 45.896 46.8619 44.264 46.6219 42.728C46.3819 41.528 46.2379 40.376 46.2379 39.608H45.7579C44.3179 45.368 41.1499 47.384 37.6939 47.384C32.5099 47.384 28.6219 44.264 28.6219 39.512C28.6219 33.56 33.7579 29.528 41.4859 29.528H45.2299ZM45.2299 30.392H41.7259C36.3499 30.392 32.7979 34.04 32.7979 39.512C32.7979 43.496 34.9579 46.088 38.2699 46.088C41.6299 46.088 45.2299 43.016 45.2299 36.152V30.392ZM56.7866 47V46.568H60.4346C62.7386 46.568 62.9786 46.328 62.9786 44.024V13.352H60.0986C55.4906 13.352 53.8586 14.264 53.6186 18.872L53.4266 20.888L52.6106 20.792L53.3306 9.656L53.8106 9.704L53.6186 12.488H75.9866L75.7466 9.752L76.2746 9.704L76.9946 20.792L76.1306 20.888L75.9866 18.872C75.6506 14.264 74.1146 13.352 69.5066 13.352H66.7226V44.024C66.7226 46.328 66.9626 46.568 69.2666 46.568H72.8186V47H56.7866ZM106.375 46.136V46.568C104.071 46.664 101.767 47.048 99.8948 47.432V47.048C100.039 46.088 100.087 45.176 100.087 44.312V37.592H99.6548C98.6468 44.504 94.6148 47.384 90.1028 47.384C85.3988 47.384 81.9908 44.84 81.9908 40.136V15.752C81.9908 14.84 81.4628 14.312 80.5508 14.312H78.2948V13.88H81.0308C82.9508 13.88 85.4468 13.304 85.4468 11.336V11.144H85.8308V15.224V39.704C85.8308 44.168 87.7508 46.52 90.5348 46.52C95.6708 46.52 99.1268 41.624 99.1268 34.28V15.464C99.1268 13.16 98.8388 12.92 96.5348 12.92H95.7188V12.488L103.159 12.296V12.68C103.015 13.544 102.967 14.36 102.967 15.224V43.592C102.967 45.896 103.255 46.136 105.559 46.136H106.375ZM153.097 24.248V19.256C153.097 15.176 151.177 12.92 147.673 12.92C142.921 12.92 140.137 15.8 139.945 19.496L139.849 22.472H138.985L139.513 11.144H139.993L139.849 13.688C139.801 14.36 139.753 14.888 139.657 15.224L139.993 15.32C140.041 15.176 140.425 14.456 140.761 14.216C142.249 13.112 144.745 12.104 147.625 12.104C153.673 12.104 156.937 14.84 156.937 19.88V37.352C156.937 39.272 157.081 39.8 158.521 39.8C158.809 39.8 159.097 39.752 159.481 39.752L160.297 39.704V40.136C157.993 40.376 156.361 40.76 155.017 41.192V40.808C155.017 38.648 154.153 35.048 154.105 33.368H153.625C152.185 39.128 149.017 41.144 145.561 41.144C140.089 41.144 136.489 38.216 136.489 33.752C136.489 28.088 141.625 24.248 149.353 24.248H153.097ZM153.097 25.112H149.593C144.217 25.112 140.665 28.568 140.665 33.752C140.665 37.448 142.825 39.848 146.137 39.848C149.497 39.848 153.097 36.776 153.097 29.912V25.112ZM107.833 47V46.568H109.513C111.817 46.568 112.057 46.328 112.057 44.024V15.464C112.057 13.16 111.817 12.92 109.513 12.92H107.833V12.488H120.361C128.041 12.488 133.129 16.76 133.129 23.144C133.129 29 128.713 32.984 122.953 33.512L121.993 33.56V33.848C123.913 34.088 125.977 36.008 128.473 38.408C132.697 42.488 138.265 47.72 146.857 47.72C150.217 47.72 154.297 47.24 158.953 45.8L160.249 45.368L160.393 45.8L159.049 46.184C153.001 48.152 148.105 49.304 143.737 49.304C133.657 49.304 127.513 42.536 123.385 37.928C121.225 35.576 119.641 33.8 118.345 33.8H117.769V32.984H119.977C125.353 32.984 128.953 29.048 128.953 23.144C128.953 17.288 125.353 13.352 119.977 13.352H114.985V13.4C115.561 13.976 115.801 14.792 115.801 15.896V44.024C115.801 46.328 116.089 46.568 118.393 46.568H121.177V47H107.833Z" fill="#32253F"/>
</svg>
