<svg width="161" height="40" viewBox="0 0 161 40" fill="none" xmlns="http://www.w3.org/2000/svg">
<path d="M0.864 37.5V37.068H2.112C4.416 37.068 4.704 36.828 4.704 34.524V5.964C4.704 3.66 4.416 3.42 2.112 3.42H0.864V2.988H8.208L21.36 27.18C21.888 28.092 22.224 28.764 22.224 28.956H22.512C22.464 28.428 22.464 27.756 22.464 26.94V6.444C22.464 4.14 21.696 3.42 19.392 3.42H17.232V2.988H27.12V3.42H26.352C24.048 3.42 23.28 4.14 23.28 6.444V38.412H22.896C22.896 37.932 22.176 36.588 21.552 35.436L6.672 8.412C6.144 7.548 5.712 6.588 5.712 6.54H5.472C5.52 7.068 5.52 7.788 5.52 8.604V34.524C5.52 36.828 5.808 37.068 8.112 37.068H9.36V37.5H0.864ZM45.2299 20.028V9.756C45.2299 5.676 43.2139 3.468 39.5659 3.468C34.8139 3.468 32.2699 6.3 32.0779 9.996L31.9819 12.972H31.1179L31.6459 1.644H32.1259L31.9819 4.188C31.9339 4.86 31.8859 5.388 31.7899 5.724L32.1259 5.82C32.1739 5.676 32.5579 4.956 32.8939 4.716C34.3819 3.612 36.6379 2.604 39.5179 2.604C45.7099 2.604 48.9739 5.34 48.9739 10.38V34.092C48.9739 36.012 49.1179 36.54 50.5579 36.54C50.8459 36.54 51.5179 36.492 51.5179 36.492L52.3339 36.444V36.876C50.0299 37.116 48.4939 37.5 47.1499 37.932V37.548C47.1499 36.396 46.8619 34.764 46.6219 33.228C46.3819 32.028 46.2379 30.876 46.2379 30.108H45.7579C44.3179 35.868 41.1499 37.884 37.6939 37.884C32.5099 37.884 28.6219 34.764 28.6219 30.012C28.6219 24.06 33.7579 20.028 41.4859 20.028H45.2299ZM45.2299 20.892H41.7259C36.3499 20.892 32.7979 24.54 32.7979 30.012C32.7979 33.996 34.9579 36.588 38.2699 36.588C41.6299 36.588 45.2299 33.516 45.2299 26.652V20.892ZM56.7866 37.5V37.068H60.4346C62.7386 37.068 62.9786 36.828 62.9786 34.524V3.852H60.0986C55.4906 3.852 53.8586 4.764 53.6186 9.372L53.4266 11.388L52.6106 11.292L53.3306 0.155997L53.8106 0.204L53.6186 2.988H75.9866L75.7466 0.251999L76.2746 0.204L76.9946 11.292L76.1306 11.388L75.9866 9.372C75.6506 4.764 74.1146 3.852 69.5066 3.852H66.7226V34.524C66.7226 36.828 66.9626 37.068 69.2666 37.068H72.8186V37.5H56.7866ZM106.375 36.636V37.068C104.071 37.164 101.767 37.548 99.8948 37.932V37.548C100.039 36.588 100.087 35.676 100.087 34.812V28.092H99.6548C98.6468 35.004 94.6148 37.884 90.1028 37.884C85.3988 37.884 81.9908 35.34 81.9908 30.636V6.252C81.9908 5.34 81.4628 4.812 80.5508 4.812H78.2948V4.38H81.0308C82.9508 4.38 85.4468 3.804 85.4468 1.836V1.644H85.8308V5.724V30.204C85.8308 34.668 87.7508 37.02 90.5348 37.02C95.6708 37.02 99.1268 32.124 99.1268 24.78V5.964C99.1268 3.66 98.8388 3.42 96.5348 3.42H95.7188V2.988L103.159 2.796V3.18C103.015 4.044 102.967 4.86 102.967 5.724V34.092C102.967 36.396 103.255 36.636 105.559 36.636H106.375ZM153.097 14.748V9.756C153.097 5.676 151.177 3.42 147.673 3.42C142.921 3.42 140.137 6.3 139.945 9.996L139.849 12.972H138.985L139.513 1.644H139.993L139.849 4.188C139.801 4.86 139.753 5.388 139.657 5.724L139.993 5.82C140.041 5.676 140.425 4.956 140.761 4.716C142.249 3.612 144.745 2.604 147.625 2.604C153.673 2.604 156.937 5.34 156.937 10.38V27.852C156.937 29.772 157.081 30.3 158.521 30.3C158.809 30.3 159.097 30.252 159.481 30.252L160.297 30.204V30.636C157.993 30.876 156.361 31.26 155.017 31.692V31.308C155.017 29.148 154.153 25.548 154.105 23.868H153.625C152.185 29.628 149.017 31.644 145.561 31.644C140.089 31.644 136.489 28.716 136.489 24.252C136.489 18.588 141.625 14.748 149.353 14.748H153.097ZM153.097 15.612H149.593C144.217 15.612 140.665 19.068 140.665 24.252C140.665 27.948 142.825 30.348 146.137 30.348C149.497 30.348 153.097 27.276 153.097 20.412V15.612ZM107.833 37.5V37.068H109.513C111.817 37.068 112.057 36.828 112.057 34.524V5.964C112.057 3.66 111.817 3.42 109.513 3.42H107.833V2.988H120.361C128.041 2.988 133.129 7.26 133.129 13.644C133.129 19.5 128.713 23.484 122.953 24.012L121.993 24.06V24.348C123.913 24.588 125.977 26.508 128.473 28.908C132.697 32.988 138.265 38.22 146.857 38.22C150.217 38.22 154.297 37.74 158.953 36.3L160.249 35.868L160.393 36.3L159.049 36.684C153.001 38.652 148.105 39.804 143.737 39.804C133.657 39.804 127.513 33.036 123.385 28.428C121.225 26.076 119.641 24.3 118.345 24.3H117.769V23.484H119.977C125.353 23.484 128.953 19.548 128.953 13.644C128.953 7.788 125.353 3.852 119.977 3.852H114.985V3.9C115.561 4.476 115.801 5.292 115.801 6.396V34.524C115.801 36.828 116.089 37.068 118.393 37.068H121.177V37.5H107.833Z" fill="#628871"/>
</svg>
